<svg width="11" height="11" viewBox="0 0 11 11" fill="none" xmlns="http://www.w3.org/2000/svg">
<path fill-rule="evenodd" clip-rule="evenodd" d="M9.61315 1.33734C9.79945 1.13351 9.78523 0.817243 9.5814 0.630947C9.37756 0.444651 9.0613 0.458869 8.875 0.662704L5.27558 4.601L1.33729 1.00157C1.13346 0.815277 0.817192 0.829495 0.630897 1.03333C0.444601 1.23716 0.458819 1.55343 0.662653 1.73972L4.60094 5.33915L1.00163 9.27732C0.81533 9.48115 0.829548 9.79741 1.03338 9.98371C1.23722 10.17 1.55348 10.1558 1.73978 9.95195L5.33909 6.01378L9.27727 9.6131C9.4811 9.7994 9.79736 9.78518 9.98366 9.58134C10.17 9.37751 10.1557 9.06125 9.9519 8.87495L6.01373 5.27563L9.61315 1.33734Z" fill="black"/>
</svg>
