<svg width="45" height="40" viewBox="0 0 45 40" fill="none" xmlns="http://www.w3.org/2000/svg">
<path d="M3.56505 20.9285L22.5 40L41.4349 20.9285C46.1884 16.1408 46.1884 8.37844 41.4349 3.59076C36.6815 -1.19692 28.9748 -1.19692 24.2214 3.59076L22.5 5.32454L20.7786 3.59076C16.0252 -1.19692 8.31845 -1.19692 3.56505 3.59076C-1.18835 8.37845 -1.18835 16.1408 3.56505 20.9285Z" fill="#D2FF28"/>
<path d="M39.306 18.8148L22.5 35.742L5.69398 18.8148C2.10201 15.1969 2.10201 9.32233 5.69398 5.70445C9.27409 2.09852 15.0696 2.09852 18.6497 5.70445L20.3711 7.43822C20.9343 8.0055 21.7006 8.32454 22.5 8.32454C23.2994 8.32454 24.0657 8.0055 24.6289 7.43822L26.3503 5.70445C29.9304 2.09852 35.7259 2.09852 39.306 5.70445C42.898 9.32232 42.898 15.1969 39.306 18.8148Z" stroke="#E0E0E0" stroke-width="6" stroke-linejoin="round"/>
</svg>
