<svg width="123" height="85" viewBox="0 0 123 85" fill="none" xmlns="http://www.w3.org/2000/svg">
<path d="M39.5781 82.0781C29.0813 82.0781 19.0145 77.9083 11.5922 70.486C4.16983 63.0636 -2.18884e-06 52.9968 -1.73002e-06 42.5C-1.27119e-06 32.0032 4.16982 21.9364 11.5922 14.514C19.0145 7.0917 29.0813 2.92187 39.5781 2.92187L39.5781 26.53C35.3426 26.53 31.2806 28.2125 28.2856 31.2075C25.2907 34.2025 23.6081 38.2645 23.6081 42.5C23.6081 46.7355 25.2907 50.7975 28.2856 53.7925C31.2806 56.7875 35.3426 58.47 39.5781 58.47L39.5781 82.0781Z" fill="#2C2C2C"/>
<path d="M39.4431 27.3589C37.4549 27.3765 35.4896 27.7855 33.6595 28.5626C31.8293 29.3396 30.1702 30.4696 28.7767 31.8879C27.3832 33.3062 26.2828 34.9851 25.5381 36.8287C24.7935 38.6723 24.4193 40.6445 24.4368 42.6327C24.4544 44.6209 24.8634 46.5862 25.6405 48.4163C26.4176 50.2465 27.5475 51.9057 28.9658 53.2991C30.3841 54.6926 32.063 55.7931 33.9066 56.5377C35.7502 57.2823 37.7224 57.6566 39.7106 57.639L39.5957 44.6345C39.3153 44.6369 39.0371 44.5842 38.7771 44.4791C38.517 44.3741 38.2802 44.2189 38.0802 44.0223C37.8801 43.8258 37.7207 43.5918 37.6111 43.3336C37.5015 43.0755 37.4438 42.7983 37.4414 42.5178C37.4389 42.2374 37.4917 41.9592 37.5967 41.6992C37.7017 41.4391 37.8569 41.2023 38.0535 41.0023C38.25 40.8022 38.4841 40.6428 38.7422 40.5332C39.0004 40.4236 39.2776 40.3659 39.558 40.3634L39.4431 27.3589Z" fill="#D2FF28"/>
<rect x="41" width="81.8125" height="85" fill="#2C2C2C"/>
<path d="M55.864 37C55.208 35.608 54.56 34.16 53.92 32.656C53.28 31.152 52.672 29.664 52.096 28.192C51.52 26.72 50.984 25.312 50.488 23.968C50.008 22.624 49.592 21.424 49.24 20.368H53.368C53.688 21.328 54.032 22.368 54.4 23.488C54.784 24.592 55.168 25.696 55.552 26.8C55.952 27.904 56.336 28.96 56.704 29.968C57.072 30.976 57.416 31.848 57.736 32.584C58.04 31.848 58.376 30.976 58.744 29.968C59.128 28.96 59.512 27.904 59.896 26.8C60.296 25.696 60.68 24.592 61.048 23.488C61.432 22.368 61.784 21.328 62.104 20.368H66.088C65.72 21.424 65.296 22.624 64.816 23.968C64.336 25.312 63.808 26.72 63.232 28.192C62.656 29.664 62.048 31.152 61.408 32.656C60.768 34.16 60.12 35.608 59.464 37H55.864ZM71.5763 37H68.0003V24.376H71.5763V37ZM71.9123 20.728C71.9123 21.384 71.6963 21.904 71.2643 22.288C70.8483 22.656 70.3523 22.84 69.7763 22.84C69.2003 22.84 68.6963 22.656 68.2643 22.288C67.8483 21.904 67.6403 21.384 67.6403 20.728C67.6403 20.072 67.8483 19.56 68.2643 19.192C68.6963 18.808 69.2003 18.616 69.7763 18.616C70.3523 18.616 70.8483 18.808 71.2643 19.192C71.6963 19.56 71.9123 20.072 71.9123 20.728ZM74.9378 24.808C75.5458 24.632 76.3298 24.472 77.2898 24.328C78.2498 24.168 79.2578 24.088 80.3138 24.088C81.3858 24.088 82.2738 24.232 82.9778 24.52C83.6978 24.792 84.2658 25.184 84.6818 25.696C85.0978 26.208 85.3938 26.816 85.5698 27.52C85.7458 28.224 85.8338 29.008 85.8338 29.872V37H82.2578V30.304C82.2578 29.152 82.1058 28.336 81.8018 27.856C81.4978 27.376 80.9298 27.136 80.0978 27.136C79.8418 27.136 79.5698 27.152 79.2818 27.184C78.9938 27.2 78.7378 27.224 78.5138 27.256V37H74.9378V24.808ZM99.9036 24.376C99.1836 26.808 98.4316 29.088 97.6476 31.216C96.8636 33.344 96.0076 35.408 95.0796 37.408C94.7436 38.128 94.4076 38.736 94.0716 39.232C93.7356 39.744 93.3676 40.16 92.9676 40.48C92.5676 40.816 92.1116 41.056 91.5996 41.2C91.1036 41.36 90.5196 41.44 89.8476 41.44C89.2876 41.44 88.7676 41.384 88.2876 41.272C87.8236 41.176 87.4396 41.064 87.1356 40.936L87.7596 38.08C88.1276 38.208 88.4556 38.296 88.7436 38.344C89.0316 38.392 89.3356 38.416 89.6556 38.416C90.2956 38.416 90.7836 38.24 91.1196 37.888C91.4716 37.552 91.7676 37.08 92.0076 36.472C91.1916 34.872 90.3756 33.08 89.5596 31.096C88.7436 29.096 87.9756 26.856 87.2556 24.376H91.0476C91.2076 25 91.3916 25.68 91.5996 26.416C91.8236 27.136 92.0556 27.872 92.2956 28.624C92.5356 29.36 92.7756 30.08 93.0156 30.784C93.2716 31.488 93.5116 32.128 93.7356 32.704C93.9436 32.128 94.1596 31.488 94.3836 30.784C94.6076 30.08 94.8236 29.36 95.0316 28.624C95.2556 27.872 95.4636 27.136 95.6556 26.416C95.8636 25.68 96.0476 25 96.2076 24.376H99.9036ZM106.861 37.24C105.821 37.224 104.973 37.112 104.317 36.904C103.677 36.696 103.165 36.408 102.781 36.04C102.413 35.656 102.157 35.2 102.013 34.672C101.885 34.128 101.821 33.52 101.821 32.848V18.952L105.397 18.376V32.128C105.397 32.448 105.421 32.736 105.469 32.992C105.517 33.248 105.605 33.464 105.733 33.64C105.877 33.816 106.077 33.96 106.333 34.072C106.589 34.184 106.933 34.256 107.365 34.288L106.861 37.24ZM55.864 65C55.208 63.608 54.56 62.16 53.92 60.656C53.28 59.152 52.672 57.664 52.096 56.192C51.52 54.72 50.984 53.312 50.488 51.968C50.008 50.624 49.592 49.424 49.24 48.368H53.368C53.688 49.328 54.032 50.368 54.4 51.488C54.784 52.592 55.168 53.696 55.552 54.8C55.952 55.904 56.336 56.96 56.704 57.968C57.072 58.976 57.416 59.848 57.736 60.584C58.04 59.848 58.376 58.976 58.744 57.968C59.128 56.96 59.512 55.904 59.896 54.8C60.296 53.696 60.68 52.592 61.048 51.488C61.432 50.368 61.784 49.328 62.104 48.368H66.088C65.72 49.424 65.296 50.624 64.816 51.968C64.336 53.312 63.808 54.72 63.232 56.192C62.656 57.664 62.048 59.152 61.408 60.656C60.768 62.16 60.12 63.608 59.464 65H55.864ZM71.5763 65H68.0003V52.376H71.5763V65ZM71.9123 48.728C71.9123 49.384 71.6963 49.904 71.2643 50.288C70.8483 50.656 70.3523 50.84 69.7763 50.84C69.2003 50.84 68.6963 50.656 68.2643 50.288C67.8483 49.904 67.6403 49.384 67.6403 48.728C67.6403 48.072 67.8483 47.56 68.2643 47.192C68.6963 46.808 69.2003 46.616 69.7763 46.616C70.3523 46.616 70.8483 46.808 71.2643 47.192C71.6963 47.56 71.9123 48.072 71.9123 48.728ZM83.0258 58.592C83.0258 56.288 82.1778 55.136 80.4818 55.136C80.1138 55.136 79.7458 55.184 79.3778 55.28C79.0258 55.376 78.7378 55.496 78.5138 55.64V62.144C78.6898 62.176 78.9138 62.208 79.1858 62.24C79.4578 62.256 79.7538 62.264 80.0738 62.264C81.0498 62.264 81.7858 61.928 82.2818 61.256C82.7778 60.584 83.0258 59.696 83.0258 58.592ZM86.6738 58.688C86.6738 59.696 86.5218 60.608 86.2178 61.424C85.9298 62.24 85.5058 62.936 84.9458 63.512C84.3858 64.088 83.6978 64.536 82.8818 64.856C82.0658 65.16 81.1378 65.312 80.0978 65.312C79.6658 65.312 79.2098 65.288 78.7298 65.24C78.2658 65.208 77.8018 65.16 77.3378 65.096C76.8898 65.032 76.4578 64.96 76.0418 64.88C75.6258 64.784 75.2578 64.688 74.9378 64.592V46.952L78.5138 46.376V52.664C78.9138 52.488 79.3298 52.352 79.7618 52.256C80.1938 52.16 80.6578 52.112 81.1538 52.112C82.0498 52.112 82.8418 52.272 83.5298 52.592C84.2178 52.896 84.7938 53.336 85.2578 53.912C85.7218 54.488 86.0738 55.184 86.3138 56C86.5538 56.8 86.6738 57.696 86.6738 58.688ZM88.8222 58.784C88.8222 57.664 88.9902 56.688 89.3262 55.856C89.6782 55.008 90.1342 54.304 90.6942 53.744C91.2542 53.184 91.8942 52.76 92.6142 52.472C93.3502 52.184 94.1022 52.04 94.8702 52.04C96.6622 52.04 98.0782 52.592 99.1182 53.696C100.158 54.784 100.678 56.392 100.678 58.52C100.678 58.728 100.67 58.96 100.654 59.216C100.638 59.456 100.622 59.672 100.606 59.864H92.4942C92.5742 60.6 92.9182 61.184 93.5262 61.616C94.1342 62.048 94.9502 62.264 95.9742 62.264C96.6302 62.264 97.2702 62.208 97.8942 62.096C98.5342 61.968 99.0542 61.816 99.4542 61.64L99.9342 64.544C99.7422 64.64 99.4862 64.736 99.1662 64.832C98.8462 64.928 98.4862 65.008 98.0862 65.072C97.7022 65.152 97.2862 65.216 96.8382 65.264C96.3902 65.312 95.9422 65.336 95.4942 65.336C94.3582 65.336 93.3662 65.168 92.5182 64.832C91.6862 64.496 90.9902 64.04 90.4302 63.464C89.8862 62.872 89.4782 62.176 89.2062 61.376C88.9502 60.576 88.8222 59.712 88.8222 58.784ZM97.2222 57.416C97.2062 57.112 97.1502 56.816 97.0542 56.528C96.9742 56.24 96.8382 55.984 96.6462 55.76C96.4702 55.536 96.2382 55.352 95.9502 55.208C95.6782 55.064 95.3342 54.992 94.9182 54.992C94.5182 54.992 94.1742 55.064 93.8862 55.208C93.5982 55.336 93.3582 55.512 93.1662 55.736C92.9742 55.96 92.8222 56.224 92.7102 56.528C92.6142 56.816 92.5422 57.112 92.4942 57.416H97.2222ZM107.062 62.432C107.718 62.432 108.182 62.368 108.454 62.24C108.726 62.112 108.862 61.864 108.862 61.496C108.862 61.208 108.686 60.96 108.334 60.752C107.982 60.528 107.446 60.28 106.726 60.008C106.166 59.8 105.654 59.584 105.19 59.36C104.742 59.136 104.358 58.872 104.038 58.568C103.718 58.248 103.47 57.872 103.294 57.44C103.118 57.008 103.03 56.488 103.03 55.88C103.03 54.696 103.47 53.76 104.35 53.072C105.23 52.384 106.438 52.04 107.974 52.04C108.742 52.04 109.478 52.112 110.182 52.256C110.886 52.384 111.446 52.528 111.862 52.688L111.238 55.472C110.822 55.328 110.366 55.2 109.87 55.088C109.39 54.976 108.846 54.92 108.238 54.92C107.118 54.92 106.558 55.232 106.558 55.856C106.558 56 106.582 56.128 106.63 56.24C106.678 56.352 106.774 56.464 106.918 56.576C107.062 56.672 107.254 56.784 107.494 56.912C107.75 57.024 108.07 57.152 108.454 57.296C109.238 57.584 109.886 57.872 110.398 58.16C110.91 58.432 111.31 58.736 111.598 59.072C111.902 59.392 112.11 59.752 112.222 60.152C112.35 60.552 112.414 61.016 112.414 61.544C112.414 62.792 111.942 63.736 110.998 64.376C110.07 65.016 108.75 65.336 107.038 65.336C105.918 65.336 104.982 65.24 104.23 65.048C103.494 64.856 102.982 64.696 102.694 64.568L103.294 61.664C103.902 61.904 104.526 62.096 105.166 62.24C105.806 62.368 106.438 62.432 107.062 62.432Z" fill="#E0E0E0"/>
</svg>
