<svg width="123" height="85" viewBox="0 0 123 85" fill="none" xmlns="http://www.w3.org/2000/svg">
<path d="M39.5781 82.0781C29.0813 82.0781 19.0145 77.9083 11.5922 70.486C4.16983 63.0636 -2.18884e-06 52.9968 -1.73002e-06 42.5C-1.27119e-06 32.0032 4.16982 21.9364 11.5922 14.514C19.0145 7.0917 29.0813 2.92187 39.5781 2.92187L39.5781 26.53C35.3426 26.53 31.2806 28.2125 28.2856 31.2075C25.2907 34.2025 23.6081 38.2645 23.6081 42.5C23.6081 46.7355 25.2907 50.7975 28.2856 53.7925C31.2806 56.7875 35.3426 58.47 39.5781 58.47L39.5781 82.0781Z" fill="white"/>
<path d="M39.4433 27.3588C37.4551 27.3764 35.4898 27.7854 33.6596 28.5624C31.8295 29.3395 30.1703 30.4695 28.7768 31.8878C27.3833 33.3061 26.2829 34.9849 25.5382 36.8285C24.7936 38.6721 24.4194 40.6443 24.437 42.6326C24.4545 44.6208 24.8635 46.5861 25.6406 48.4162C26.4177 50.2464 27.5476 51.9055 28.9659 53.299C30.3842 54.6925 32.0631 55.7929 33.9067 56.5376C35.7503 57.2822 37.7225 57.6564 39.7107 57.6389L39.5959 44.6344C39.3154 44.6368 39.0372 44.584 38.7772 44.479C38.5171 44.374 38.2803 44.2188 38.0803 44.0222C37.8802 43.8257 37.7209 43.5916 37.6112 43.3335C37.5016 43.0753 37.444 42.7981 37.4415 42.5177C37.439 42.2373 37.4918 41.9591 37.5968 41.699C37.7018 41.439 37.8571 41.2022 38.0536 41.0021C38.2502 40.8021 38.4842 40.6427 38.7423 40.5331C39.0005 40.4235 39.2777 40.3658 39.5581 40.3633L39.4433 27.3588Z" fill="#D2FF28"/>
<rect x="41" width="81.8125" height="85" fill="#E0E0E0"/>
<path d="M56.864 37C56.208 35.608 55.56 34.16 54.92 32.656C54.28 31.152 53.672 29.664 53.096 28.192C52.52 26.72 51.984 25.312 51.488 23.968C51.008 22.624 50.592 21.424 50.24 20.368H54.368C54.688 21.328 55.032 22.368 55.4 23.488C55.784 24.592 56.168 25.696 56.552 26.8C56.952 27.904 57.336 28.96 57.704 29.968C58.072 30.976 58.416 31.848 58.736 32.584C59.04 31.848 59.376 30.976 59.744 29.968C60.128 28.96 60.512 27.904 60.896 26.8C61.296 25.696 61.68 24.592 62.048 23.488C62.432 22.368 62.784 21.328 63.104 20.368H67.088C66.72 21.424 66.296 22.624 65.816 23.968C65.336 25.312 64.808 26.72 64.232 28.192C63.656 29.664 63.048 31.152 62.408 32.656C61.768 34.16 61.12 35.608 60.464 37H56.864ZM72.5763 37H69.0003V24.376H72.5763V37ZM72.9123 20.728C72.9123 21.384 72.6963 21.904 72.2643 22.288C71.8483 22.656 71.3523 22.84 70.7763 22.84C70.2003 22.84 69.6963 22.656 69.2643 22.288C68.8483 21.904 68.6403 21.384 68.6403 20.728C68.6403 20.072 68.8483 19.56 69.2643 19.192C69.6963 18.808 70.2003 18.616 70.7763 18.616C71.3523 18.616 71.8483 18.808 72.2643 19.192C72.6963 19.56 72.9123 20.072 72.9123 20.728ZM75.9378 24.808C76.5458 24.632 77.3298 24.472 78.2898 24.328C79.2498 24.168 80.2578 24.088 81.3138 24.088C82.3858 24.088 83.2738 24.232 83.9778 24.52C84.6978 24.792 85.2658 25.184 85.6818 25.696C86.0978 26.208 86.3938 26.816 86.5698 27.52C86.7458 28.224 86.8338 29.008 86.8338 29.872V37H83.2578V30.304C83.2578 29.152 83.1058 28.336 82.8018 27.856C82.4978 27.376 81.9298 27.136 81.0978 27.136C80.8418 27.136 80.5698 27.152 80.2818 27.184C79.9938 27.2 79.7378 27.224 79.5138 27.256V37H75.9378V24.808ZM100.904 24.376C100.184 26.808 99.4316 29.088 98.6476 31.216C97.8636 33.344 97.0076 35.408 96.0796 37.408C95.7436 38.128 95.4076 38.736 95.0716 39.232C94.7356 39.744 94.3676 40.16 93.9676 40.48C93.5676 40.816 93.1116 41.056 92.5996 41.2C92.1036 41.36 91.5196 41.44 90.8476 41.44C90.2876 41.44 89.7676 41.384 89.2876 41.272C88.8236 41.176 88.4396 41.064 88.1356 40.936L88.7596 38.08C89.1276 38.208 89.4556 38.296 89.7436 38.344C90.0316 38.392 90.3356 38.416 90.6556 38.416C91.2956 38.416 91.7836 38.24 92.1196 37.888C92.4716 37.552 92.7676 37.08 93.0076 36.472C92.1916 34.872 91.3756 33.08 90.5596 31.096C89.7436 29.096 88.9756 26.856 88.2556 24.376H92.0476C92.2076 25 92.3916 25.68 92.5996 26.416C92.8236 27.136 93.0556 27.872 93.2956 28.624C93.5356 29.36 93.7756 30.08 94.0156 30.784C94.2716 31.488 94.5116 32.128 94.7356 32.704C94.9436 32.128 95.1596 31.488 95.3836 30.784C95.6076 30.08 95.8236 29.36 96.0316 28.624C96.2556 27.872 96.4636 27.136 96.6556 26.416C96.8636 25.68 97.0476 25 97.2076 24.376H100.904ZM107.861 37.24C106.821 37.224 105.973 37.112 105.317 36.904C104.677 36.696 104.165 36.408 103.781 36.04C103.413 35.656 103.157 35.2 103.013 34.672C102.885 34.128 102.821 33.52 102.821 32.848V18.952L106.397 18.376V32.128C106.397 32.448 106.421 32.736 106.469 32.992C106.517 33.248 106.605 33.464 106.733 33.64C106.877 33.816 107.077 33.96 107.333 34.072C107.589 34.184 107.933 34.256 108.365 34.288L107.861 37.24ZM56.864 65C56.208 63.608 55.56 62.16 54.92 60.656C54.28 59.152 53.672 57.664 53.096 56.192C52.52 54.72 51.984 53.312 51.488 51.968C51.008 50.624 50.592 49.424 50.24 48.368H54.368C54.688 49.328 55.032 50.368 55.4 51.488C55.784 52.592 56.168 53.696 56.552 54.8C56.952 55.904 57.336 56.96 57.704 57.968C58.072 58.976 58.416 59.848 58.736 60.584C59.04 59.848 59.376 58.976 59.744 57.968C60.128 56.96 60.512 55.904 60.896 54.8C61.296 53.696 61.68 52.592 62.048 51.488C62.432 50.368 62.784 49.328 63.104 48.368H67.088C66.72 49.424 66.296 50.624 65.816 51.968C65.336 53.312 64.808 54.72 64.232 56.192C63.656 57.664 63.048 59.152 62.408 60.656C61.768 62.16 61.12 63.608 60.464 65H56.864ZM72.5763 65H69.0003V52.376H72.5763V65ZM72.9123 48.728C72.9123 49.384 72.6963 49.904 72.2643 50.288C71.8483 50.656 71.3523 50.84 70.7763 50.84C70.2003 50.84 69.6963 50.656 69.2643 50.288C68.8483 49.904 68.6403 49.384 68.6403 48.728C68.6403 48.072 68.8483 47.56 69.2643 47.192C69.6963 46.808 70.2003 46.616 70.7763 46.616C71.3523 46.616 71.8483 46.808 72.2643 47.192C72.6963 47.56 72.9123 48.072 72.9123 48.728ZM84.0258 58.592C84.0258 56.288 83.1778 55.136 81.4818 55.136C81.1138 55.136 80.7458 55.184 80.3778 55.28C80.0258 55.376 79.7378 55.496 79.5138 55.64V62.144C79.6898 62.176 79.9138 62.208 80.1858 62.24C80.4578 62.256 80.7538 62.264 81.0738 62.264C82.0498 62.264 82.7858 61.928 83.2818 61.256C83.7778 60.584 84.0258 59.696 84.0258 58.592ZM87.6738 58.688C87.6738 59.696 87.5218 60.608 87.2178 61.424C86.9298 62.24 86.5058 62.936 85.9458 63.512C85.3858 64.088 84.6978 64.536 83.8818 64.856C83.0658 65.16 82.1378 65.312 81.0978 65.312C80.6658 65.312 80.2098 65.288 79.7298 65.24C79.2658 65.208 78.8018 65.16 78.3378 65.096C77.8898 65.032 77.4578 64.96 77.0418 64.88C76.6258 64.784 76.2578 64.688 75.9378 64.592V46.952L79.5138 46.376V52.664C79.9138 52.488 80.3298 52.352 80.7618 52.256C81.1938 52.16 81.6578 52.112 82.1538 52.112C83.0498 52.112 83.8418 52.272 84.5298 52.592C85.2178 52.896 85.7938 53.336 86.2578 53.912C86.7218 54.488 87.0738 55.184 87.3138 56C87.5538 56.8 87.6738 57.696 87.6738 58.688ZM89.8222 58.784C89.8222 57.664 89.9902 56.688 90.3262 55.856C90.6782 55.008 91.1342 54.304 91.6942 53.744C92.2542 53.184 92.8942 52.76 93.6142 52.472C94.3502 52.184 95.1022 52.04 95.8702 52.04C97.6622 52.04 99.0782 52.592 100.118 53.696C101.158 54.784 101.678 56.392 101.678 58.52C101.678 58.728 101.67 58.96 101.654 59.216C101.638 59.456 101.622 59.672 101.606 59.864H93.4942C93.5742 60.6 93.9182 61.184 94.5262 61.616C95.1342 62.048 95.9502 62.264 96.9742 62.264C97.6302 62.264 98.2702 62.208 98.8942 62.096C99.5342 61.968 100.054 61.816 100.454 61.64L100.934 64.544C100.742 64.64 100.486 64.736 100.166 64.832C99.8462 64.928 99.4862 65.008 99.0862 65.072C98.7022 65.152 98.2862 65.216 97.8382 65.264C97.3902 65.312 96.9422 65.336 96.4942 65.336C95.3582 65.336 94.3662 65.168 93.5182 64.832C92.6862 64.496 91.9902 64.04 91.4302 63.464C90.8862 62.872 90.4782 62.176 90.2062 61.376C89.9502 60.576 89.8222 59.712 89.8222 58.784ZM98.2222 57.416C98.2062 57.112 98.1502 56.816 98.0542 56.528C97.9742 56.24 97.8382 55.984 97.6462 55.76C97.4702 55.536 97.2382 55.352 96.9502 55.208C96.6782 55.064 96.3342 54.992 95.9182 54.992C95.5182 54.992 95.1742 55.064 94.8862 55.208C94.5982 55.336 94.3582 55.512 94.1662 55.736C93.9742 55.96 93.8222 56.224 93.7102 56.528C93.6142 56.816 93.5422 57.112 93.4942 57.416H98.2222ZM108.062 62.432C108.718 62.432 109.182 62.368 109.454 62.24C109.726 62.112 109.862 61.864 109.862 61.496C109.862 61.208 109.686 60.96 109.334 60.752C108.982 60.528 108.446 60.28 107.726 60.008C107.166 59.8 106.654 59.584 106.19 59.36C105.742 59.136 105.358 58.872 105.038 58.568C104.718 58.248 104.47 57.872 104.294 57.44C104.118 57.008 104.03 56.488 104.03 55.88C104.03 54.696 104.47 53.76 105.35 53.072C106.23 52.384 107.438 52.04 108.974 52.04C109.742 52.04 110.478 52.112 111.182 52.256C111.886 52.384 112.446 52.528 112.862 52.688L112.238 55.472C111.822 55.328 111.366 55.2 110.87 55.088C110.39 54.976 109.846 54.92 109.238 54.92C108.118 54.92 107.558 55.232 107.558 55.856C107.558 56 107.582 56.128 107.63 56.24C107.678 56.352 107.774 56.464 107.918 56.576C108.062 56.672 108.254 56.784 108.494 56.912C108.75 57.024 109.07 57.152 109.454 57.296C110.238 57.584 110.886 57.872 111.398 58.16C111.91 58.432 112.31 58.736 112.598 59.072C112.902 59.392 113.11 59.752 113.222 60.152C113.35 60.552 113.414 61.016 113.414 61.544C113.414 62.792 112.942 63.736 111.998 64.376C111.07 65.016 109.75 65.336 108.038 65.336C106.918 65.336 105.982 65.24 105.23 65.048C104.494 64.856 103.982 64.696 103.694 64.568L104.294 61.664C104.902 61.904 105.526 62.096 106.166 62.24C106.806 62.368 107.438 62.432 108.062 62.432Z" fill="#2C2C2C"/>
</svg>
