<svg width="45" height="50" viewBox="0 0 45 50" fill="none" xmlns="http://www.w3.org/2000/svg">
<path fill-rule="evenodd" clip-rule="evenodd" d="M37 21C37 29.8366 29.8366 37 21 37C12.1634 37 5 29.8366 5 21C5 12.1634 12.1634 5 21 5C29.8366 5 37 12.1634 37 21ZM31.7791 39.0262C28.6281 40.9145 24.9408 42 21 42C9.40202 42 0 32.598 0 21C0 9.40202 9.40202 0 21 0C32.598 0 42 9.40202 42 21C42 26.4953 39.8892 31.4976 36.4342 35.2404L44.3426 45.1259C45.3776 46.4197 45.1679 48.3076 43.8741 49.3426C42.5803 50.3776 40.6924 50.1679 39.6574 48.8741L31.7791 39.0262Z" fill="black"/>
</svg>
