<svg width="43" height="41" viewBox="0 0 43 41" fill="none" xmlns="http://www.w3.org/2000/svg">
<g filter="url(#filter0_d_115_5482)">
<path d="M6.4466 19.196L19.4412 32.2843L32.4357 19.196C35.6979 15.9104 35.6979 10.5833 32.4357 7.29759C29.1736 4.01193 23.8846 4.01193 20.6225 7.29759L19.4412 8.48744L18.2598 7.29759C14.9977 4.01193 9.70874 4.01193 6.4466 7.29759C3.18447 10.5833 3.18447 15.9104 6.4466 19.196Z" fill="#D2FF28"/>
<ellipse cx="31.4509" cy="8.26471" rx="7.54902" ry="7.54901" fill="#525252"/>
<path fill-rule="evenodd" clip-rule="evenodd" d="M27.334 8.09779C27.3334 7.82165 27.5568 7.59731 27.8329 7.59671L35.7545 7.57953C36.0306 7.57893 36.2549 7.8023 36.2555 8.07844C36.2561 8.35459 36.0328 8.57893 35.7566 8.57953L27.8351 8.59671C27.5589 8.59731 27.3346 8.37394 27.334 8.09779Z" fill="#D2FF28"/>
</g>
<defs>
<filter id="filter0_d_115_5482" x="0" y="0.715698" width="43" height="39.5686" filterUnits="userSpaceOnUse" color-interpolation-filters="sRGB">
<feFlood flood-opacity="0" result="BackgroundImageFix"/>
<feColorMatrix in="SourceAlpha" type="matrix" values="0 0 0 0 0 0 0 0 0 0 0 0 0 0 0 0 0 0 127 0" result="hardAlpha"/>
<feOffset dy="4"/>
<feGaussianBlur stdDeviation="2"/>
<feComposite in2="hardAlpha" operator="out"/>
<feColorMatrix type="matrix" values="0 0 0 0 0 0 0 0 0 0 0 0 0 0 0 0 0 0 0.25 0"/>
<feBlend mode="normal" in2="BackgroundImageFix" result="effect1_dropShadow_115_5482"/>
<feBlend mode="normal" in="SourceGraphic" in2="effect1_dropShadow_115_5482" result="shape"/>
</filter>
</defs>
</svg>
